<svg xmlns="http://www.w3.org/2000/svg" viewBox="0 0 24 24" fill="currentColor">
  <path d="M12 23q-3.475-.875-5.738-3.988Q4 15.9 4 12.05V5l8-3 8 3v7.05q0 .55-.05 1.075t-.15 1.025h-2.05q.15-.5.2-1.012Q18 12.625 18 12.05V6.4l-6-2.25L6 6.4v5.65q0 2.825 1.35 5.1t3.65 3.6q.325.15.638.275.312.125.612.225.15.525.438.987.287.463.662.863-.45.25-.925.45-.475.2-.925.35Zm5.5.5q-1.875 0-3.188-1.312Q13 20.875 13 19t1.312-3.188Q15.625 14.5 17.5 14.5t3.188 1.312Q22 17.125 22 19t-1.312 3.188Q19.375 23.5 17.5 23.5Zm-.625-1.65 3.25-3.25-1.05-1.05-2.2 2.2-.95-.95-1.05 1.05ZM12 13Z"/>
</svg>