<svg xmlns="http://www.w3.org/2000/svg" viewBox="0 0 24 24" fill="currentColor">
  <path d="M8.4 18.2c.38.62.94 1.12 1.6 1.44V22H6v-2h2v-.55c-1.14-.13-2.2-.58-3.08-1.25L3.2 19.2 1.8 17.8l1.05-1.05C2.15 15.87 1.7 14.8 1.55 13.55L0 14V10l1.55.45c.15-1.25.6-2.32 1.3-3.2L1.8 6.2 3.2 4.8l1.05 1.05C5.12 5.15 6.2 4.7 7.45 4.55V2h4v2.55c1.25.15 2.32.6 3.2 1.3L15.7 4.8l1.41 1.41-1.05 1.05c.7.88 1.15 1.95 1.3 3.2L20 10v4l-2.55-.45c-.15 1.25-.6 2.32-1.3 3.2l1.05 1.05-1.41 1.41-1.05-1.05c-.88.7-1.95 1.15-3.2 1.3V22h-4v-2.36c-.66-.32-1.22-.82-1.6-1.44zM12 16c2.21 0 4-1.79 4-4s-1.79-4-4-4-4 1.79-4 4 1.79 4 4 4zm0-6c1.1 0 2 .9 2 2s-.9 2-2 2-2-.9-2-2 .9-2 2-2z"/>
</svg>